<?xml version="1.0" encoding="utf-8"?>
<!-- Generator: Adobe Illustrator 21.1.0, SVG Export Plug-In . SVG Version: 6.00 Build 0)  -->
<svg version="1.1" id="Layer_1" xmlns="http://www.w3.org/2000/svg" xmlns:xlink="http://www.w3.org/1999/xlink" x="0px" y="0px"
	 viewBox="0 0 263.9 100" style="enable-background:new 0 0 263.9 100;" xml:space="preserve">
<style type="text/css">
	.st0{fill:#FFFFFF;}
</style>
<g>
	<g>
		<path class="st0" d="M146.1,49.1l-6-14.8c-0.2-0.5-0.6-0.8-1.1-0.9l-0.4-0.1l-5.6,0l-0.3,0c-0.5,0.1-1,0.4-1.2,0.9l-6,14.8
			l-0.1,0.4v15.6c0,0.8,0.7,1.5,1.5,1.5c0.8,0,1.5-0.7,1.5-1.5v-6.5h14.5l0,6.5c0,0.8,0.7,1.5,1.5,1.5c0.8,0,1.5-0.7,1.5-1.5l0-15.6
			L146.1,49.1z M143.2,55.5h-14.5v-5.6l5.5-13.5h3.6l5.5,13.5L143.2,55.5z"/>
		<path class="st0" d="M114.8,33.3h-13.4c-0.3,0-0.5,0.1-0.7,0.2c-0.5,0.3-0.8,0.8-0.8,1.4v30.2c0,0.4,0.2,0.8,0.4,1.1
			c0.3,0.3,0.7,0.4,1.1,0.4h13.4c3.6,0,6.6-3,6.6-6.6V54c0,0,0-0.1,0-0.1c-0.1-1.9-0.9-3.6-2.4-4.9c1.4-1.2,2.3-3,2.4-4.8
			c0,0,0-0.1,0-0.1v-4.2C121.3,36.3,118.4,33.3,114.8,33.3z M114.8,50.6l0.1,0c1.9,0.1,3.4,1.6,3.4,3.5c0,0,0,0,0,0l0,6
			c0,1.9-1.6,3.5-3.5,3.5h-11.8v-13l11.7,0C114.7,50.6,114.7,50.6,114.8,50.6z M114.9,47.5c0,0-0.1,0-0.1,0h-11.8V36.4h11.8
			c1.9,0,3.5,1.6,3.5,3.5V44C118.2,45.9,116.8,47.4,114.9,47.5z"/>
		<path class="st0" d="M157,36.4h8.3c1.9,0,3.5,1.6,3.5,3.5c0,0.8,0.7,1.5,1.5,1.5c0.8,0,1.5-0.7,1.5-1.5c0-3.6-3-6.6-6.6-6.6H157
			c-3.6,0-6.6,3-6.6,6.6v20.2c0,3.6,3,6.6,6.6,6.6h0h8.3c3.6,0,6.5-2.9,6.6-6.5l0-11.1c0-0.4-0.2-0.8-0.5-1.1
			c-0.3-0.3-0.7-0.5-1.1-0.5h-7.2c-0.8,0-1.5,0.7-1.5,1.5s0.7,1.5,1.5,1.5h5.7l0,9.5c0,1.9-1.6,3.5-3.5,3.5H157
			c-1.9,0-3.5-1.6-3.5-3.5V39.9C153.5,38,155.1,36.4,157,36.4z"/>
		<path class="st0" d="M240.8,33.3h-13.4c-0.8,0-1.5,0.7-1.5,1.5v30.2c0,0.8,0.7,1.5,1.5,1.5c0.8,0,1.5-0.7,1.5-1.5V50.5h6.6
			l0.9,1.1v0l7.8,9.5v4c0,0.8,0.7,1.5,1.5,1.5c0.8,0,1.5-0.7,1.5-1.5v-4.5c0-0.4-0.1-0.7-0.4-1l-7.5-9.1l1.2,0c0,0,0.1,0,0.1,0
			c3.5,0,6.4-2.8,6.6-6.3c0,0,0-0.1,0-0.1v-4.2C247.3,36.3,244.4,33.3,240.8,33.3z M244.3,39.9V44c0,1.9-1.5,3.4-3.4,3.5
			c0,0-0.1,0-0.1,0h-11.8V36.4h11.8C242.7,36.4,244.3,38,244.3,39.9z"/>
		<path class="st0" d="M221.6,49.1l-6-14.8c-0.2-0.5-0.6-0.8-1.1-0.9l-0.4-0.1l-5.6,0l-0.3,0c-0.5,0.1-1,0.4-1.2,0.9l-6,14.8
			l-0.1,0.4v15.6c0,0.8,0.7,1.5,1.5,1.5c0.8,0,1.5-0.7,1.5-1.5v-6.5h14.5l0,6.5c0,0.8,0.7,1.5,1.5,1.5c0.8,0,1.5-0.7,1.5-1.5l0-15.6
			L221.6,49.1z M218.6,55.5h-14.5v-5.6l5.5-13.5h3.6l5.5,13.5L218.6,55.5z"/>
		<path class="st0" d="M196.7,49.1l-6-14.8c-0.2-0.5-0.6-0.8-1-0.9l-0.4-0.1l-5.6,0l-0.3,0c-0.5,0.1-1,0.4-1.2,0.9l-6,14.8l-0.1,0.4
			v15.6c0,0.8,0.7,1.5,1.5,1.5c0.8,0,1.5-0.7,1.5-1.5v-6.5h14.5l0,6.5c0,0.8,0.7,1.5,1.5,1.5c0.8,0,1.5-0.7,1.5-1.5l0-15.6
			L196.7,49.1z M193.7,55.5h-14.5v-5.6l5.5-13.5l3.6,0l5.5,13.5L193.7,55.5z"/>
	</g>
	<g>
		<path class="st0" d="M54.3,50.6l-0.1,0c-0.1,0-0.1,0-0.2,0l-11.7,0v13h11.8c1.9,0,3.5-1.6,3.5-3.5l0-6c0,0,0,0,0,0
			C57.7,52.2,56.2,50.6,54.3,50.6z"/>
		<path class="st0" d="M54.3,47.5c1.8-0.1,3.3-1.6,3.4-3.4v-4.1c0-1.9-1.6-3.5-3.5-3.5H42.3v11.1h11.8
			C54.2,47.5,54.2,47.5,54.3,47.5z"/>
		<path class="st0" d="M16.8,16.7v66.7h66.7V16.7H16.8z M60.7,44.1c0,0,0,0.1,0,0.1c-0.1,1.9-0.9,3.6-2.4,4.8c1.5,1.2,2.3,3,2.4,4.9
			c0,0,0,0.1,0,0.1v6.1c0,3.6-3,6.6-6.6,6.6H40.8c-0.4,0-0.8-0.2-1.1-0.4c-0.3-0.3-0.4-0.7-0.4-1.1V34.9c0-0.6,0.3-1.1,0.8-1.4
			c0.2-0.1,0.5-0.2,0.7-0.2h13.4c3.6,0,6.6,3,6.6,6.6V44.1z"/>
	</g>
</g>
</svg>
