<?xml version="1.0" encoding="utf-8"?>
<!-- Generator: Adobe Illustrator 21.1.0, SVG Export Plug-In . SVG Version: 6.00 Build 0)  -->
<svg version="1.1" id="Layer_1" xmlns="http://www.w3.org/2000/svg" xmlns:xlink="http://www.w3.org/1999/xlink" x="0px" y="0px"
	 viewBox="0 0 206 149" style="enable-background:new 0 0 206 149;" xml:space="preserve">
<style type="text/css">
	.st0{opacity:0.2;}
	.st1{fill:#FFFFFF;}
	.st2{opacity:0.99;}
	.st3{opacity:0.5;}
</style>
<g>
	<g>
		<g class="st0">
			<path class="st1" d="M60.8,4.1v41.5c0,3.4,0.7,6.1,2.2,8.1s3.9,2.9,7.2,2.9s5.8-1,7.4-2.9c1.6-2,2.4-4.6,2.4-8.1V4.1h23v41.5
				c0,7-1.4,13-4.4,17.9s-6.9,8.7-11.9,11.2c-5.1,2.5-10.7,3.7-17,3.7S58,77.2,53.1,74.7c-4.8-2.5-8.6-6.2-11.3-11.2
				c-2.7-4.9-4-10.9-4-18V4L60.8,4.1L60.8,4.1z"/>
			<path class="st1" d="M136.2,4.1v73.7h-23.1V4.1H136.2z"/>
		</g>
		<g class="st0">
			<path class="st1" d="M66.7,4.1v41.5c0,3.4,0.7,6.1,2.2,8.1s3.9,2.9,7.2,2.9s5.8-1,7.4-2.9c1.6-2,2.4-4.6,2.4-8.1V4.1h23v41.5
				c0,7-1.4,13-4.4,17.9c-2.9,5-6.9,8.7-11.9,11.2c-5.1,2.5-10.7,3.7-17,3.7S63.9,77.2,59,74.7c-4.8-2.5-8.6-6.2-11.3-11.2
				c-2.7-4.9-4-10.9-4-18V4L66.7,4.1L66.7,4.1z"/>
			<path class="st1" d="M142,4.1v73.7h-23.1V4.1H142z"/>
		</g>
		<g class="st0">
			<path class="st1" d="M73.6,4.1v41.5c0,3.4,0.7,6.1,2.2,8.1s3.9,2.9,7.2,2.9s5.8-1,7.4-2.9c1.6-2,2.4-4.6,2.4-8.1V4.1h23v41.5
				c0,7-1.4,13-4.4,17.9c-2.9,5-6.9,8.7-11.9,11.2c-5.1,2.5-10.7,3.7-17,3.7s-11.7-1.2-16.6-3.7c-4.8-2.5-8.6-6.2-11.3-11.2
				c-2.7-4.9-4-10.9-4-18V4L73.6,4.1L73.6,4.1z"/>
			<path class="st1" d="M148.9,4.1v73.7h-23.1V4.1H148.9z"/>
		</g>
		<g>
			<path class="st1" d="M81.1,4.1v41.5c0,3.4,0.7,6.1,2.2,8.1s3.9,2.9,7.2,2.9s5.8-1,7.4-2.9c1.6-2,2.4-4.6,2.4-8.1V4.1h23v41.5
				c0,7-1.4,13-4.4,17.9c-2.9,5-6.9,8.7-11.9,11.2c-5.1,2.5-10.7,3.7-17,3.7s-11.7-1.2-16.6-3.7c-4.8-2.5-8.6-6.2-11.3-11.2
				c-2.7-4.9-4-10.9-4-18V4L81.1,4.1L81.1,4.1z"/>
			<path class="st1" d="M156.4,4.1v73.7h-23.1V4.1H156.4z"/>
		</g>
	</g>
	<g class="st2">
		<path class="st1" d="M6.7,93.3v11.9c0,2,0.5,3.4,1.3,4.3s2,1.4,3.6,1.4c1.5,0,2.7-0.5,3.5-1.4s1.2-2.3,1.2-4.3V93.3h2.5v11.9
			c0,2.7-0.7,4.8-2,6.1c-1.4,1.4-3.1,2-5.4,2c-2.2,0-4-0.7-5.4-2c-1.4-1.4-2-3.4-2-6.1V93.3H6.7L6.7,93.3z"/>
		<path class="st1" d="M31.9,98.9c1,0.9,1.7,2.2,2,3.7h-2.5c-0.1-0.9-0.5-1.7-1.1-2.3c-0.7-0.6-1.5-0.9-2.6-0.9
			c-0.9,0-1.6,0.2-2.2,0.7c-0.5,0.5-0.8,1-0.8,1.8c0,0.6,0.2,1,0.5,1.4c0.3,0.3,0.8,0.6,1.3,0.8c0.5,0.2,1.2,0.4,2.2,0.6
			c1.2,0.3,2.1,0.5,2.7,0.8c0.7,0.3,1.3,0.7,1.8,1.3c0.5,0.6,0.7,1.4,0.7,2.4c0,1.2-0.5,2.3-1.4,3.1s-2.2,1.2-3.8,1.2
			c-1.8,0-3.3-0.5-4.5-1.3c-1.2-0.9-1.8-2.1-2-3.7h2.5c0.1,0.9,0.5,1.7,1.2,2.3c0.7,0.6,1.7,0.8,2.9,0.8c0.9,0,1.6-0.2,2.1-0.7
			s0.7-1,0.7-1.8c0-0.6-0.2-1.1-0.5-1.4s-0.8-0.7-1.3-0.8c-0.5-0.2-1.2-0.4-2.2-0.6c-1.2-0.3-2.1-0.5-2.7-0.8
			c-0.7-0.3-1.2-0.7-1.8-1.2c-0.5-0.6-0.7-1.4-0.7-2.3c0-1.3,0.5-2.3,1.4-3.1c1-0.8,2.3-1.2,3.9-1.2C29.4,97.5,30.8,98,31.9,98.9z"
			/>
		<path class="st1" d="M51.5,106H39.1c0.1,1.8,0.6,3.1,1.5,4c1,0.9,2.1,1.3,3.5,1.3c1.2,0,2.3-0.3,3.1-0.9c0.8-0.7,1.4-1.4,1.5-2.5
			h2.7c-0.2,1-0.6,2-1.2,2.9c-0.7,0.8-1.5,1.5-2.5,2s-2.2,0.7-3.5,0.7c-1.5,0-2.8-0.3-3.9-1c-1.2-0.7-2-1.6-2.7-2.7
			c-0.7-1.2-1-2.6-1-4.2s0.3-3,1-4.2s1.6-2.1,2.7-2.7c1.2-0.7,2.5-1,3.9-1c1.5,0,2.8,0.3,3.9,1c1.1,0.7,2,1.5,2.5,2.5
			s0.9,2.3,0.9,3.5C51.6,105.1,51.6,105.6,51.5,106z M48.4,101.9c-0.5-0.8-1-1.4-1.8-1.7c-0.8-0.4-1.6-0.6-2.5-0.6
			c-1.4,0-2.6,0.5-3.5,1.3c-1,0.8-1.5,2.2-1.6,3.9h9.9C49.1,103.6,48.9,102.6,48.4,101.9z"/>
		<path class="st1" d="M59.7,98.4c1-0.6,2.2-0.9,3.5-0.9v2.8h-0.8c-1.4,0-2.6,0.4-3.5,1.1s-1.4,2-1.4,3.7v8.2H55V97.8h2.5v3.1
			C58,99.7,58.7,99,59.7,98.4z"/>
		<path class="st1" d="M75.3,93.3v19.8h-2.5V93.3H75.3z"/>
		<path class="st1" d="M91.9,99.2c1.1,1.2,1.6,2.8,1.6,5v9H91v-8.7c0-1.6-0.4-2.7-1.2-3.5s-1.8-1.2-3.2-1.2s-2.5,0.5-3.4,1.4
			c-0.8,0.9-1.2,2.2-1.2,4v8.2h-2.5V97.9H82v3.7c0.4-1.2,1.1-2.2,2.1-2.9c1-0.7,2.2-1,3.5-1C89.3,97.5,90.8,98,91.9,99.2z"/>
		<path class="st1" d="M98.6,97.7l5,12.1l4.6-12.1h2.9l-9.2,22.8H99l3.2-7.6l-6.5-15.2L98.6,97.7L98.6,97.7z"/>
		<path class="st1" d="M127.5,106h-12.4c0.1,1.8,0.6,3.1,1.5,4c1,0.9,2.1,1.3,3.5,1.3c1.2,0,2.3-0.3,3.1-0.9
			c0.8-0.7,1.4-1.4,1.5-2.5h2.7c-0.2,1-0.6,2-1.2,2.9c-0.7,0.8-1.5,1.5-2.5,2s-2.2,0.7-3.5,0.7c-1.5,0-2.8-0.3-3.9-1
			c-1.2-0.7-2-1.6-2.7-2.7c-0.7-1.2-1-2.6-1-4.2s0.3-3,1-4.2s1.6-2.1,2.7-2.7c1.2-0.7,2.5-1,3.9-1c1.5,0,2.8,0.3,3.9,1
			s2,1.5,2.5,2.5s0.9,2.3,0.9,3.5C127.6,105.1,127.5,105.6,127.5,106z M124.5,101.9c-0.5-0.8-1-1.4-1.8-1.7
			c-0.8-0.4-1.6-0.6-2.5-0.6c-1.4,0-2.6,0.5-3.5,1.3c-1,0.8-1.5,2.2-1.6,3.9h9.9C125.1,103.6,124.9,102.6,124.5,101.9z"/>
		<path class="st1" d="M135.8,98.4c1-0.6,2.2-0.9,3.5-0.9v2.8h-0.8c-1.4,0-2.6,0.4-3.5,1.1s-1.4,2-1.4,3.7v8.2h-2.5V97.8h2.5v3.1
			C134,99.7,134.8,99,135.8,98.4z"/>
		<path class="st1" d="M145.8,94.8c-0.5,0.5-0.8,1.3-0.8,2.5v0.4h3.7v2.3H145v13.2h-2.5V100h-2.2v-2.3h2.2v-0.6
			c0-3.7,2.1-5.5,6.2-5.3v2.3C147.3,94,146.3,94.3,145.8,94.8z"/>
		<path class="st1" d="M161.5,98.6c1,0.8,1.8,1.8,2.2,3v-3.9h2.5v15.5h-2.5v-3.9c-0.4,1.2-1.1,2.3-2.2,3c-1,0.8-2.3,1.1-3.8,1.1
			c-1.4,0-2.6-0.3-3.7-1c-1-0.7-1.9-1.6-2.5-2.7c-0.6-1.2-0.9-2.6-0.9-4.2s0.3-3,0.9-4.2s1.4-2.1,2.5-2.7c1-0.7,2.3-1,3.7-1
			C159.2,97.5,160.5,97.9,161.5,98.6z M154.7,101.3c-1,1-1.4,2.4-1.4,4.2s0.5,3.1,1.4,4.2c1,1,2.2,1.5,3.8,1.5c1,0,1.9-0.3,2.7-0.7
			c0.8-0.5,1.4-1.1,1.9-2c0.5-0.8,0.7-1.8,0.7-3c0-1.1-0.2-2.1-0.7-3c-0.5-0.8-1-1.5-1.9-2c-0.8-0.5-1.7-0.7-2.7-0.7
			C156.8,99.8,155.6,100.3,154.7,101.3z"/>
		<path class="st1" d="M182.1,99.1c1.3,1,2.1,2.5,2.4,4.2h-2.7c-0.2-1.1-0.7-2-1.6-2.6c-0.8-0.7-1.9-0.9-3.1-0.9
			c-0.9,0-1.7,0.2-2.5,0.6c-0.7,0.4-1.3,1-1.8,1.9c-0.5,0.8-0.7,1.9-0.7,3.2c0,1.2,0.2,2.3,0.7,3.2c0.5,0.8,1,1.5,1.8,1.9
			c0.7,0.4,1.6,0.6,2.5,0.6c1.2,0,2.3-0.3,3.1-1c0.8-0.7,1.4-1.5,1.6-2.6h2.7c-0.3,1.8-1.1,3.2-2.4,4.2s-2.9,1.6-4.9,1.6
			c-1.5,0-2.8-0.3-3.9-1c-1.2-0.7-2-1.6-2.7-2.7c-0.7-1.2-1-2.6-1-4.2s0.3-3,1-4.2s1.6-2.1,2.7-2.7c1.2-0.7,2.5-1,3.9-1
			C179.2,97.5,180.8,98,182.1,99.1z"/>
		<path class="st1" d="M202,106h-12.3c0.1,1.8,0.6,3.1,1.5,4c1,0.9,2.1,1.3,3.5,1.3c1.2,0,2.3-0.3,3.1-0.9c0.8-0.7,1.4-1.4,1.6-2.5
			h2.7c-0.2,1-0.6,2-1.2,2.9c-0.7,0.8-1.5,1.5-2.5,2s-2.2,0.7-3.5,0.7c-1.5,0-2.8-0.3-3.9-1c-1.2-0.7-2-1.6-2.7-2.7
			c-0.7-1.2-1-2.6-1-4.2s0.3-3,1-4.2s1.6-2.1,2.7-2.7c1.2-0.7,2.5-1,3.9-1c1.5,0,2.8,0.3,3.9,1s2,1.5,2.5,2.5c0.6,1,0.9,2.3,0.9,3.5
			C202.1,105.1,202,105.6,202,106z M198.9,101.9c-0.5-0.8-1-1.4-1.8-1.7c-0.8-0.4-1.6-0.6-2.5-0.6c-1.4,0-2.6,0.5-3.5,1.3
			c-1,0.8-1.5,2.2-1.6,3.9h9.9C199.5,103.6,199.3,102.6,198.9,101.9z"/>
	</g>
	<g class="st3">
		<path class="st1" d="M47.7,136.5c0.4,0.3,0.8,0.7,0.9,1.3v-1.7h1.1v6.6h-1.1V141c-0.2,0.5-0.5,1-0.9,1.3s-1,0.5-1.6,0.5
			s-1.1-0.1-1.6-0.4s-0.8-0.7-1.1-1.2s-0.4-1.1-0.4-1.8s0.1-1.3,0.4-1.8c0.3-0.5,0.6-0.9,1.1-1.2c0.5-0.3,1-0.4,1.6-0.4
			S47.2,136.2,47.7,136.5z M44.7,137.6c-0.4,0.4-0.6,1-0.6,1.8s0.2,1.3,0.6,1.8s0.9,0.6,1.6,0.6c0.4,0,0.8-0.1,1.2-0.3
			c0.3-0.2,0.6-0.5,0.8-0.8c0.2-0.4,0.3-0.8,0.3-1.3s-0.1-0.9-0.3-1.3s-0.5-0.6-0.8-0.8c-0.3-0.2-0.7-0.3-1.2-0.3
			C45.7,137,45,137.2,44.7,137.6z"/>
		<path class="st1" d="M59.5,136.4c0.5,0.3,0.8,0.7,1.1,1.2s0.4,1.1,0.4,1.8s-0.1,1.3-0.4,1.8c-0.3,0.5-0.6,0.9-1.1,1.2
			s-1,0.4-1.6,0.4s-1.2-0.2-1.6-0.5c-0.4-0.3-0.7-0.7-0.9-1.3v1.7h-1.1v-8.9h1.1v4c0.2-0.5,0.5-1,0.9-1.3s1-0.5,1.6-0.5
			C58.5,136,59,136.2,59.5,136.4z M56.4,137.3c-0.3,0.2-0.6,0.5-0.8,0.8s-0.3,0.8-0.3,1.3s0.1,0.9,0.3,1.3s0.5,0.6,0.8,0.8
			c0.3,0.2,0.7,0.3,1.1,0.3c0.7,0,1.2-0.2,1.6-0.6c0.4-0.4,0.6-1,0.6-1.8s-0.2-1.3-0.6-1.8c-0.4-0.4-0.9-0.6-1.6-0.6
			C57.2,137,56.9,137.1,56.4,137.3z"/>
		<path class="st1" d="M66.7,136.5c0.4,0.3,0.8,0.7,0.9,1.3v-1.7h1.1v6.6h-1.1V141c-0.2,0.5-0.5,1-0.9,1.3s-1,0.5-1.6,0.5
			s-1.1-0.1-1.6-0.4s-0.8-0.7-1.1-1.2s-0.4-1.1-0.4-1.8s0.1-1.3,0.4-1.8c0.3-0.5,0.6-0.9,1.1-1.2c0.5-0.3,1-0.4,1.6-0.4
			S66.2,136.2,66.7,136.5z M63.7,137.6c-0.4,0.4-0.6,1-0.6,1.8s0.2,1.3,0.6,1.8s0.9,0.6,1.6,0.6c0.4,0,0.8-0.1,1.2-0.3
			c0.3-0.2,0.6-0.5,0.8-0.8c0.2-0.4,0.3-0.8,0.3-1.3s-0.1-0.9-0.3-1.3s-0.5-0.6-0.8-0.8c-0.3-0.2-0.7-0.3-1.2-0.3
			C64.7,137,64.2,137.2,63.7,137.6z"/>
		<path class="st1" d="M74.7,136.5c0.4,0.3,0.8,0.7,0.9,1.3v-1.7h1.1v6.7c0,0.6-0.1,1.1-0.4,1.6c-0.3,0.5-0.6,0.8-1.1,1.1
			c-0.5,0.3-1,0.4-1.6,0.4c-0.9,0-1.6-0.2-2.2-0.6s-0.9-1-1.1-1.7h1.1c0.1,0.4,0.4,0.8,0.7,1c0.4,0.3,0.8,0.4,1.4,0.4
			c0.6,0,1.1-0.2,1.5-0.6s0.6-0.9,0.6-1.6V141c-0.2,0.5-0.5,1-0.9,1.3s-1,0.5-1.6,0.5s-1.1-0.1-1.6-0.4s-0.8-0.7-1.1-1.2
			s-0.4-1.1-0.4-1.8s0.1-1.3,0.4-1.8c0.3-0.5,0.6-0.9,1.1-1.2s1-0.4,1.6-0.4S74.3,136.2,74.7,136.5z M71.9,137.6
			c-0.4,0.4-0.6,1-0.6,1.8s0.2,1.3,0.6,1.8c0.4,0.4,0.9,0.6,1.6,0.6c0.4,0,0.8-0.1,1.2-0.3c0.3-0.2,0.6-0.5,0.8-0.8s0.3-0.8,0.3-1.3
			s-0.1-0.9-0.3-1.3s-0.5-0.6-0.8-0.8c-0.3-0.2-0.7-0.3-1.2-0.3C72.7,137,72.2,137.2,71.9,137.6z"/>
		<path class="st1" d="M82.9,136.5c0.4,0.3,0.8,0.7,0.9,1.3v-1.7h1.1v6.6h-1.1V141c-0.2,0.5-0.5,1-0.9,1.3s-1,0.5-1.6,0.5
			s-1.1-0.1-1.6-0.4s-0.8-0.7-1.1-1.2s-0.4-1.1-0.4-1.8s0.1-1.3,0.4-1.8c0.3-0.5,0.6-0.9,1.1-1.2c0.5-0.3,1-0.4,1.6-0.4
			S82.4,136.2,82.9,136.5z M79.9,137.6c-0.4,0.4-0.6,1-0.6,1.8s0.2,1.3,0.6,1.8c0.4,0.4,0.9,0.6,1.6,0.6c0.4,0,0.8-0.1,1.2-0.3
			c0.3-0.2,0.6-0.5,0.8-0.8s0.3-0.8,0.3-1.3s-0.1-0.9-0.3-1.3s-0.5-0.6-0.8-0.8c-0.3-0.2-0.7-0.3-1.2-0.3
			C80.9,137,80.3,137.2,79.9,137.6z"/>
		<path class="st1" d="M90.9,136.5c0.4,0.3,0.8,0.7,0.9,1.3v-1.7h1.1v6.6h-1.1V141c-0.2,0.5-0.5,1-0.9,1.3s-1,0.5-1.6,0.5
			s-1.1-0.1-1.6-0.4s-0.8-0.7-1.1-1.2s-0.4-1.1-0.4-1.8s0.1-1.3,0.4-1.8c0.3-0.5,0.6-0.9,1.1-1.2s1-0.4,1.6-0.4
			S90.4,136.2,90.9,136.5z M88,137.6c-0.4,0.4-0.6,1-0.6,1.8s0.2,1.3,0.6,1.8s0.9,0.6,1.6,0.6c0.4,0,0.8-0.1,1.2-0.3
			c0.3-0.2,0.6-0.5,0.8-0.8c0.2-0.4,0.3-0.8,0.3-1.3s-0.1-0.9-0.3-1.3s-0.5-0.6-0.8-0.8c-0.3-0.2-0.7-0.3-1.2-0.3
			C88.9,137,88.4,137.2,88,137.6z"/>
		<path class="st1" d="M96.7,136.4c0.4-0.3,0.9-0.4,1.5-0.4v1.2h-0.3c-0.6,0-1.1,0.2-1.5,0.5s-0.6,0.8-0.6,1.6v3.5h-1.1v-6.6h1.1
			v1.3C95.9,137,96.2,136.6,96.7,136.4z"/>
		<path class="st1" d="M103.9,134.9c-0.2,0.2-0.3,0.6-0.3,1.1v0.2h1.6v1h-1.6v5.6h-1.1v-5.6h-0.9v-1h0.9v-0.3c0-1.6,0.9-2.3,2.6-2.3
			v1C104.5,134.6,104.2,134.7,103.9,134.9z"/>
		<path class="st1" d="M108.3,136.4c0.4-0.3,0.9-0.4,1.5-0.4v1.2h-0.3c-0.6,0-1.1,0.2-1.5,0.5s-0.6,0.8-0.6,1.6v3.5h-1.1v-6.6h1.1
			v1.3C107.7,137,107.9,136.6,108.3,136.4z"/>
		<path class="st1" d="M116.8,136.1v6.6h-1.1v-1.5c-0.2,0.5-0.5,0.9-0.9,1.2c-0.4,0.3-0.9,0.4-1.5,0.4c-0.8,0-1.4-0.2-1.8-0.7
			c-0.5-0.5-0.7-1.2-0.7-2.1v-3.8h1.1v3.7c0,0.7,0.2,1.2,0.5,1.5c0.3,0.4,0.8,0.5,1.4,0.5s1.1-0.2,1.4-0.6c0.4-0.4,0.5-1,0.5-1.7
			v-3.5H116.8z"/>
		<path class="st1" d="M122.3,136.6c0.5,0.4,0.7,0.9,0.8,1.6h-1c0-0.4-0.2-0.7-0.5-1s-0.6-0.4-1.1-0.4c-0.4,0-0.7,0.1-0.9,0.3
			s-0.3,0.4-0.3,0.8c0,0.2,0.1,0.4,0.2,0.6c0.1,0.1,0.3,0.3,0.6,0.3c0.2,0.1,0.5,0.2,0.9,0.2c0.5,0.1,0.9,0.2,1.2,0.3
			c0.3,0.1,0.6,0.3,0.8,0.6c0.2,0.3,0.3,0.6,0.3,1c0,0.5-0.2,1-0.6,1.3s-0.9,0.5-1.6,0.5c-0.8,0-1.4-0.2-1.9-0.6s-0.8-0.9-0.9-1.6
			h1.1c0,0.4,0.2,0.7,0.5,1c0.3,0.2,0.7,0.4,1.2,0.4c0.4,0,0.7-0.1,0.9-0.3c0.2-0.2,0.3-0.4,0.3-0.8c0-0.3-0.1-0.5-0.2-0.6
			c-0.2-0.2-0.3-0.3-0.6-0.3c-0.2-0.1-0.5-0.2-0.9-0.3c-0.5-0.1-0.9-0.2-1.2-0.3c-0.3-0.1-0.5-0.3-0.7-0.5s-0.3-0.6-0.3-1
			c0-0.6,0.2-1,0.6-1.3s1-0.5,1.7-0.5C121.3,136,122,136.2,122.3,136.6z"/>
		<path class="st1" d="M127.9,141.7v1h-0.8c-0.7,0-1.2-0.2-1.5-0.5s-0.5-0.9-0.5-1.6v-3.5h-1v-0.9h1v-1.6h1.1v1.6h1.7v0.9h-1.7v3.6
			c0,0.4,0.1,0.7,0.2,0.9c0.2,0.2,0.4,0.2,0.8,0.2h0.7L127.9,141.7L127.9,141.7z"/>
		<path class="st1" d="M131.3,136.4c0.4-0.3,0.9-0.4,1.5-0.4v1.2h-0.3c-0.6,0-1.1,0.2-1.5,0.5s-0.6,0.8-0.6,1.6v3.5h-1.1v-6.6h1.1
			v1.3C130.5,137,130.9,136.6,131.3,136.4z"/>
		<path class="st1" d="M138.1,136.5c0.4,0.3,0.8,0.7,0.9,1.3v-1.7h1.1v6.6h-1V141c-0.2,0.5-0.5,1-0.9,1.3s-1,0.5-1.6,0.5
			s-1.1-0.1-1.6-0.4s-0.8-0.7-1.1-1.2c-0.3-0.5-0.4-1.1-0.4-1.8s0.1-1.3,0.4-1.8s0.6-0.9,1.1-1.2s1-0.4,1.6-0.4
			S137.7,136.2,138.1,136.5z M135.2,137.6c-0.4,0.4-0.6,1-0.6,1.8s0.2,1.3,0.6,1.8s0.9,0.6,1.6,0.6c0.4,0,0.8-0.1,1.2-0.3
			c0.3-0.2,0.6-0.5,0.8-0.8c0.2-0.4,0.3-0.8,0.3-1.3s-0.1-0.9-0.3-1.3c-0.2-0.4-0.5-0.6-0.8-0.8c-0.3-0.2-0.7-0.3-1.2-0.3
			C136.2,137,135.6,137.2,135.2,137.6z"/>
		<path class="st1" d="M145,141.7v1h-0.8c-0.7,0-1.2-0.2-1.5-0.5s-0.5-0.9-0.5-1.6v-3.5h-1v-0.9h1v-1.6h1.1v1.6h1.7v0.9h-1.7v3.6
			c0,0.4,0.1,0.7,0.2,0.9c0.2,0.2,0.4,0.2,0.8,0.2h0.7L145,141.7L145,141.7z"/>
		<path class="st1" d="M146.3,133.7c0.1-0.1,0.3-0.2,0.5-0.2s0.4,0.1,0.5,0.2s0.2,0.3,0.2,0.5s-0.1,0.4-0.2,0.5s-0.3,0.2-0.5,0.2
			s-0.4-0.1-0.5-0.2s-0.2-0.3-0.2-0.5C146.2,134,146.2,133.8,146.3,133.7z M147.5,136.1v6.6h-1.1v-6.6H147.5z"/>
		<path class="st1" d="M153.9,136.4c0.5,0.3,0.9,0.7,1.2,1.2c0.3,0.5,0.4,1.1,0.4,1.8s-0.1,1.3-0.4,1.8s-0.7,0.9-1.2,1.2
			s-1.1,0.4-1.7,0.4s-1.2-0.1-1.7-0.4s-0.9-0.7-1.2-1.2c-0.3-0.5-0.4-1.1-0.4-1.8s0.1-1.3,0.4-1.8s0.7-0.9,1.2-1.2
			c0.5-0.3,1.1-0.4,1.7-0.4S153.3,136.2,153.9,136.4z M151.1,137.3c-0.3,0.2-0.6,0.4-0.8,0.8c-0.2,0.4-0.3,0.8-0.3,1.3
			s0.1,1,0.3,1.3c0.2,0.4,0.5,0.6,0.8,0.8s0.7,0.3,1.1,0.3s0.8-0.1,1.1-0.3c0.3-0.2,0.6-0.4,0.8-0.8c0.2-0.4,0.3-0.8,0.3-1.3
			s-0.1-1-0.3-1.3c-0.2-0.4-0.5-0.6-0.8-0.8c-0.3-0.2-0.7-0.3-1.1-0.3S151.3,137.1,151.1,137.3z"/>
		<path class="st1" d="M162.2,136.7c0.5,0.5,0.7,1.2,0.7,2.1v3.8h-1.1v-3.7c0-0.7-0.2-1.2-0.5-1.5c-0.3-0.4-0.8-0.5-1.4-0.5
			s-1.1,0.2-1.4,0.6c-0.4,0.4-0.5,1-0.5,1.7v3.5h-1.1v-6.6h1.1v1.6c0.2-0.5,0.5-0.9,0.9-1.2c0.4-0.3,0.9-0.4,1.5-0.4
			C161.1,136,161.8,136.3,162.2,136.7z"/>
	</g>
</g>
</svg>
